<svg xmlns="http://www.w3.org/2000/svg" width="171.999" height="89.517" viewBox="12.342 12.657 171.999 89.517"><g fill="#FDF5E3"><path d="M146.434 101.553V82.592h7.521v6.527l.626-.312 7.206-6.217h9.085l.312.312-7.205 6.217v.621c1.565 1.864 8.459 11.502 8.459 11.502l-.312.311h-8.771l-5.952-7.461h-.312l-3.132 2.799v4.662h-7.525zM89.1 101.553V82.592h22.245v4.664H96.933v2.485h12.218v4.663H96.933v2.487h15.351v4.662zM117.924 101.553V82.592h22.244v4.664h-14.411v2.485h12.218v4.663h-12.218v2.487h15.35v4.662zM44.612 94.404h8.459s.312 3.108-2.507 5.284c-3.134 1.863-5.013 2.486-10.65 2.486-5.641 0-13.784-.934-13.784-9.945 0-9.016 8.145-10.26 13.784-10.26 5.324 0 13.157 1.556 13.157 8.082H44.3s-.627-3.107-4.701-3.107c-4.072 0-5.012 2.799-5.012 4.975 0 2.174.627 5.596 5.012 5.596 4.386-.002 5.013-3.111 5.013-3.111M79.701 94.404c1.565-.935 4.071-2.176 4.071-5.596 0-3.729-2.506-6.216-7.52-6.216H58.397v19.271h7.831v-7.147h4.074l.314.312 4.697 6.526h8.459v-.311l-3.76-6.218c.002.001-.311-.31-.311-.621m-5.639-4.661h-7.833v-2.178s6.269-.311 7.521-.311c1.878.002 1.878 2.489.312 2.489M12.342 13.901h10.652v18.96l.314 1.554 7.206-20.514h10.338v.622l-9.399 21.136 10.339 36.054v.623H31.453l-6.891-23.623-1.568 2.798v20.825H12.342zM48.998 14.211H59.65l6.266 23.312h.313l-.313-23.312h10.339l.313 58.125h-9.713L59.65 47.16l-.313.31.313 24.866H48.998zM113.537 25.401c0-7.77-6.269-12.744-13.785-12.744-6.58 0-13.474 5.284-13.474 13.987v33.88c0 6.837 6.267 13.055 13.785 13.055 6.579 0 13.785-5.283 13.785-13.363.003-9.016-.311-27.355-.311-34.815m-13.472 38.232c-1.253 0-3.133-1.244-3.133-3.108V25.401c0-2.176 1.567-3.108 3.133-3.108s3.135 1.554 3.135 3.108v35.123c-.002 1.555-.942 3.109-3.135 3.109M145.807 43.119c-.626-.312-.626-.622 0-.933.627 0 4.387-2.487 4.387-6.528V22.604c0-5.285-4.071-8.703-8.771-8.703h-17.857v58.434h16.919c7.205 0 10.34-4.973 10.34-9.635V50.267c-.005-4.973-4.391-6.838-5.018-7.148m-11.593-19.583h3.761c1.566 0 1.88 1.554 1.88 2.487V36.28c0 1.554-1.565 2.176-2.507 2.176h-3.134v-14.92zm6.267 37.298c0 1.244-1.254 1.865-2.192 1.865h-4.073V47.781h4.387c1.254 0 1.881 1.242 1.881 2.175l-.003 10.878zM173.69 86.633c0-2.797 2.507-4.973 5.326-4.973s5.325 2.176 5.325 4.973c0 3.107-2.506 5.283-5.325 5.283s-5.326-2.175-5.326-5.283m9.712 0c0-2.176-2.191-4.039-4.386-4.039-2.507 0-4.387 1.863-4.387 4.039 0 2.486 1.88 4.353 4.387 4.353 2.193-.001 4.386-1.866 4.386-4.353m-1.879 2.799h-1.254l-1.253-2.176h-.938v2.176h-1.252v-5.596h2.817c.312 0 .938.311 1.565.311.312.311.627.934.627 1.555 0 .934-.627 1.555-1.566 1.555l1.254 2.175zm-1.879-3.109c.626 0 .938 0 .938-.934 0-.621-.626-.621-1.252-.621h-1.254v1.555h1.568z"/></g></svg>
